<?xml version="1.0" encoding="UTF-8"?>
<!DOCTYPE svg PUBLIC "-//W3C//DTD SVG 1.1//EN" "http://www.w3.org/Graphics/SVG/1.1/DTD/svg11.dtd">
<svg xmlns="http://www.w3.org/2000/svg" xml:space="preserve" width="110mm" height="19.26mm" version="1.1" style="shape-rendering:geometricPrecision; text-rendering:geometricPrecision; image-rendering:optimizeQuality; fill-rule:evenodd; clip-rule:evenodd"
viewBox="0 0 11000 1926"
 xmlns:xlink="http://www.w3.org/1999/xlink">
 <defs>
 </defs>
 <g id="Camada_x0020_1">
  <metadata id="CorelCorpID_0Corel-Layer"/>
  <g id="_2394990638896">
   <path class="fil0" d="M10142.1 1561.61l0 -950.01 854.57 0 0 249.52 -605.01 0 0 106.29 565.2 0 0 249.52 -565.2 0 0 119.15 605.01 0 0 249.55 -1193.71 0 -245.35 -246.66 -351.66 0 0 246.66 -249.47 0 0 -974.03 677.74 0c105.76,0 213.33,20.26 301.37,81.97 97.1,68.11 140.02,167.55 140.02,284.93 0,83.58 -26.37,158.55 -81.15,221.8 -34.73,40.04 -76.58,70.11 -123.17,91.81l270.81 269.5zm-936.15 -470.85l452.68 0c40.19,0 81.88,-6.93 116.07,-29.33 30.92,-20.33 43.7,-47.47 43.7,-84.19 0,-98.26 -73.73,-116.12 -159.77,-116.12l-452.68 0 0 229.64zm-2566.51 175.49c0,94.05 -33.22,176.05 -105.79,237.3 -69.26,58.49 -153.61,82.08 -243.16,82.08l-717.59 0 0 -249.55 717.59 0c29.57,0 58.55,-5.62 82.62,-20.29 20.17,-13.28 30.91,-28.98 30.91,-53.39 0,-23.57 -10.43,-37.77 -30.41,-49.7 -25.1,-15.02 -54.18,-20.14 -83.12,-20.14l-413.59 0c-81.67,0 -158.4,-21.56 -222.11,-73.96 -67.53,-55.55 -99.87,-130.09 -99.87,-217.17 0,-86.7 32.69,-160.62 99.87,-215.87 63.71,-52.44 140.44,-73.96 222.11,-73.96l709.84 0 0 249.52 -709.84 0c-16.48,0 -31.5,3.66 -44.51,13.98 -9.39,7.42 -12.52,15.7 -12.52,27.64 0,11.32 2.27,19.9 11.52,26.83 13.36,10.05 28.98,13.44 45.51,13.44l413.59 0c90.67,0 174.63,25.25 243.62,85.04 71.69,62.1 105.33,143.76 105.33,238.2zm1049.45 319.38l-544.15 0c-135.78,0 -255.43,-44.46 -351.06,-141.6 -96.1,-97.55 -139.15,-218.78 -139.15,-355.03 0,-133.51 41.51,-253.02 138.95,-345.88 97.06,-92.55 218.18,-131.52 351.26,-131.52l544.15 0 0 249.52 -544.15 0c-66.98,0 -125.54,19.4 -173.43,66.91 -48.05,47.67 -67.26,106.64 -67.26,173.79 0,65.75 18.83,123.43 66.71,169.39 48.33,46.43 107.5,64.87 173.98,64.87l544.15 0 0 249.55zm1253.77 -496.63c0,136.05 -42.78,257.29 -138.41,354.96 -95.66,97.55 -215.82,141.67 -351.81,141.67l-245.39 0c-135.78,0 -255.4,-44.46 -351.07,-141.6 -96.05,-97.55 -139.14,-218.78 -139.14,-355.03 0,-133.51 41.55,-253.02 138.95,-345.88 97.06,-92.55 218.21,-131.52 351.26,-131.52l245.39 0c133.22,0 254.95,38.62 352.01,131.59 97.01,93.03 138.21,212.52 138.21,345.81zm-248.24 12.82c0,-67.15 -19.22,-126.12 -67.3,-173.79 -48.13,-47.78 -107.41,-66.91 -174.68,-66.91l-245.39 0c-66.94,0 -125.55,19.4 -173.4,66.91 -48.04,47.67 -67.29,106.64 -67.29,173.79 0,65.75 18.86,123.43 66.76,169.39 48.31,46.43 107.45,64.87 173.93,64.87l245.39 0c66.77,0 126.63,-18.17 175.26,-64.87 47.85,-45.96 66.72,-103.64 66.72,-169.39z"/>
   <path class="fil1" d="M1988.64 759.21l0 -150.49 578.33 0c204.82,0 307.26,94.93 307.26,284.28l0 417.94c0,189.34 -102.6,284.27 -307.26,284.27l-361.47 0c-204.66,0 -307.22,-94.74 -307.22,-284.27l0 -3.31c0,-187.3 102.41,-280.89 307.22,-280.89l397.61 0 0 150.46 -397.61 0c-96.21,0 -144.56,43.65 -144.56,130.43l0 3.31c0,89.01 48.2,133.78 144.56,133.78l361.47 0c96.39,0 144.57,-44.58 144.57,-133.78l0 -417.94c0,-89.21 -48.36,-133.79 -144.57,-133.79l-578.33 0zm1657.65 685.51c96.41,0 144.6,-43.47 144.6,-130.43l0 -705.57 162.66 0 0 705.57c0,187.18 -102.52,280.92 -307.26,280.92l-361.43 0c-204.73,0 -307.26,-94.74 -307.26,-284.27l0 -702.22 162.66 0 0 702.22c0,89.08 48.2,133.78 144.6,133.78l361.43 0zm437.13 -1128.33l150.02 0 0 301.99 193.38 0 0 150.49 -193.38 0 0 826.34 -150.02 0 0 -1278.82zm1070.93 1128.33c96.39,0 144.6,-43.47 144.6,-130.43l0 -421.29c0,-89.21 -48.21,-133.79 -144.6,-133.79l-361.44 0c-96.4,0 -144.6,44.58 -144.6,133.79l0 417.94c0,89.2 48.2,133.78 144.6,133.78l361.44 0zm-668.7 -551.72c0,-189.54 102.41,-284.28 307.26,-284.28l361.44 0c204.85,0 307.26,94.74 307.26,284.28l0 421.29c0,187.3 -102.41,280.92 -307.26,280.92l-361.44 0c-204.85,0 -307.26,-94.74 -307.26,-284.27l0 -417.94z"/>
   <path class="fil1" d="M250.73 115.43l830.24 0 0 166.55 -830.24 0c-23.95,0 -45.82,9.9 -61.72,25.75 -15.9,15.95 -25.75,37.78 -25.75,61.76l0 931.1 -166.59 0 0 -931.1c0,-69.95 28.57,-133.51 74.58,-179.49 46,-46 109.53,-74.57 179.48,-74.57zm-87.47 1456.58l0 102.99c0,23.99 9.85,45.85 25.75,61.75 15.9,15.86 37.77,25.76 61.72,25.76l1239.44 0c23.95,0 45.81,-9.9 61.71,-25.76 15.9,-15.9 25.77,-37.76 25.77,-61.75l0 -1004.17 166.54 0 0 1004.17c0,69.95 -28.52,133.48 -74.53,179.48 -46.01,46.01 -109.57,74.58 -179.49,74.58l-1239.44 0c-69.95,0 -133.48,-28.57 -179.48,-74.58 -46.01,-46 -74.58,-109.53 -74.58,-179.48l0 -102.99 166.59 0z"/>
   <polygon class="fil0" points="454.15,1004.58 735.27,1004.58 735.27,1285.71 454.15,1285.71 "/>
   <polygon class="fil0" points="735.5,764.96 975.2,764.96 975.2,1004.66 735.5,1004.66 "/>
   <polygon class="fil0" points="1278.42,3.07 1750.38,3.07 1750.38,475.03 1278.42,475.03 "/>
   <polygon class="fil0" points="592.06,621.67 735.27,621.67 735.27,764.89 592.06,764.89 "/>
   <polygon class="fil0" points="1272.49,773.28 1410.36,773.28 1410.36,911.15 1272.49,911.15 "/>
   <polygon class="fil0" points="622.58,1574.92 739.55,1574.92 739.55,1691.87 622.58,1691.87 "/>
   <polygon class="fil0" points="980.59,481.19 1272.02,481.19 1272.02,772.62 980.59,772.62 "/>
   <polygon class="fil0" points="744.47,1277.43 1034.99,1277.43 1034.99,1567.94 744.47,1567.94 "/>
  </g>
 </g>
</svg>
